<?xml version="1.0" standalone="no"?>
<!DOCTYPE svg PUBLIC "-//W3C//DTD SVG 20010904//EN"
 "http://www.w3.org/TR/2001/REC-SVG-20010904/DTD/svg10.dtd">
<svg version="1.0" xmlns="http://www.w3.org/2000/svg"
 width="2100.000000pt" height="507.000000pt" viewBox="0 0 2100.000000 507.000000"
 preserveAspectRatio="xMidYMid meet">

<g transform="translate(0.000000,507.000000) scale(0.100000,-0.100000)"
fill="#000000" stroke="none">
<path d="M0 2800 c0 -1249 4 -2270 8 -2270 18 0 105 63 145 104 136 139 169
339 107 646 -47 233 -40 375 22 500 38 74 82 110 137 110 50 0 74 -20 100 -80
33 -77 37 -190 12 -330 -38 -205 -44 -294 -32 -408 28 -248 128 -463 284 -608
154 -145 306 -171 403 -69 95 98 120 285 93 691 -13 194 -7 268 24 316 20 29
29 33 73 36 60 3 143 -29 186 -72 59 -60 60 -131 9 -346 -37 -158 -45 -237
-31 -325 29 -184 168 -385 314 -455 81 -39 132 -45 198 -26 77 22 128 71 223
216 93 141 142 190 191 190 46 0 77 -30 124 -122 60 -116 101 -170 162 -211
72 -48 155 -73 328 -98 119 -18 155 -20 203 -11 146 27 178 129 116 368 -40
153 -38 220 8 266 26 25 42 32 86 36 49 4 57 1 87 -25 43 -38 49 -92 20 -193
-40 -145 -42 -156 -30 -199 31 -115 187 -190 335 -161 165 32 264 104 301 217
29 89 24 277 -14 538 -52 352 -64 556 -41 695 21 129 64 186 141 183 129 -6
188 -157 188 -480 0 -178 -13 -311 -42 -438 -27 -115 -29 -353 -5 -461 51
-227 146 -353 340 -450 120 -61 224 -78 295 -48 156 65 178 288 67 694 -61
224 -70 282 -69 450 0 139 2 161 23 215 58 144 164 167 222 48 21 -43 24 -62
23 -168 0 -97 -5 -139 -27 -220 -39 -150 -59 -285 -60 -420 -3 -355 135 -439
331 -201 77 93 111 108 177 76 53 -26 100 -80 190 -220 101 -159 167 -220 235
-220 41 0 74 35 96 101 15 47 18 96 18 364 1 218 5 322 13 351 19 60 53 107
96 127 36 18 38 18 75 0 79 -39 107 -146 77 -304 -21 -114 -25 -310 -7 -400
24 -118 76 -180 138 -165 41 10 120 98 178 197 81 138 141 221 189 267 86 78
122 56 269 -163 59 -88 125 -177 146 -197 132 -123 288 -34 427 247 75 151 99
250 92 380 -3 55 -17 156 -31 224 -30 142 -32 209 -11 255 23 47 84 78 164 83
87 6 122 -15 159 -95 26 -55 27 -63 26 -222 0 -143 -4 -182 -29 -295 -51 -229
-44 -290 40 -383 53 -59 106 -82 193 -82 114 0 237 53 370 160 155 125 215
327 189 640 -16 193 -15 482 2 550 17 67 44 122 73 150 62 57 180 -17 194
-121 3 -28 -4 -93 -21 -179 -48 -244 -45 -639 6 -790 16 -47 35 -77 69 -111
66 -66 124 -84 270 -84 100 0 121 3 157 23 72 38 78 59 78 277 0 188 0 191 28
247 28 58 76 108 103 108 42 0 84 -92 84 -183 0 -47 27 -144 56 -204 37 -77
113 -156 176 -183 138 -59 248 28 310 244 21 74 23 100 23 311 0 202 -3 246
-25 360 -33 173 -34 309 -1 380 56 125 135 149 267 82 60 -30 107 -80 125
-134 23 -64 15 -345 -15 -552 -68 -454 -52 -627 68 -747 73 -73 141 -98 271
-99 84 0 107 4 146 23 101 49 188 175 224 322 25 105 29 291 11 555 -18 263
-13 350 23 408 25 40 58 57 112 57 32 0 47 -6 69 -30 46 -50 54 -100 44 -288
-26 -492 2 -785 92 -940 105 -181 436 -310 591 -230 73 37 106 97 111 201 2
50 -2 117 -12 172 -73 402 25 770 182 686 28 -15 81 -92 109 -161 29 -71 29
-122 -2 -264 -61 -281 -8 -506 155 -660 122 -114 262 -161 365 -122 84 32 171
148 204 272 15 57 50 106 93 128 32 18 40 19 79 7 53 -16 104 -67 113 -113 3
-18 17 -57 31 -87 62 -133 134 -179 292 -188 64 -3 134 -15 202 -34 112 -31
209 -37 251 -16 76 39 88 130 40 321 -42 167 -38 235 18 298 70 77 222 24 222
-79 0 -19 -11 -84 -25 -145 -14 -61 -25 -137 -25 -170 0 -52 4 -63 29 -88 30
-31 101 -55 191 -65 122 -14 280 39 340 115 118 149 113 370 -20 860 -57 210
-65 294 -36 394 36 121 105 230 169 262 46 25 89 11 137 -43 63 -72 81 -144
87 -344 6 -175 -3 -286 -40 -499 -17 -99 -21 -166 -21 -320 0 -185 1 -199 27
-276 49 -146 125 -239 265 -322 166 -99 330 -109 403 -26 59 67 85 187 76 349
-8 128 -21 207 -84 497 -39 180 -46 231 -47 328 -1 103 1 119 22 151 27 44 75
69 130 69 32 0 45 -6 66 -30 46 -55 46 -141 1 -418 -52 -326 -59 -577 -17
-664 38 -77 125 -115 205 -89 42 14 112 86 152 156 39 69 54 85 81 85 36 0 80
-45 158 -164 79 -120 171 -218 237 -254 91 -48 154 -16 190 96 19 58 22 102
29 337 7 225 11 282 28 340 25 84 67 131 111 121 36 -9 96 -78 115 -133 23
-66 20 -116 -14 -303 -41 -223 -39 -274 12 -301 39 -21 130 -14 192 14 107 49
178 138 211 267 23 91 30 100 69 100 48 0 117 -65 241 -231 57 -75 123 -150
146 -168 115 -84 223 -58 373 92 156 156 192 308 145 615 -53 339 10 502 191
502 28 0 66 -6 85 -14 77 -33 88 -104 50 -331 -22 -134 -27 -194 -28 -370 -2
-232 3 -261 56 -322 42 -48 82 -63 164 -63 85 0 232 49 315 104 117 77 196
198 234 356 16 66 18 125 19 510 0 469 5 521 51 567 63 63 161 -46 184 -202 5
-38 10 -221 10 -405 0 -386 9 -501 45 -574 13 -28 30 -58 37 -67 19 -22 140
-119 150 -119 4 0 8 1028 8 2285 l0 2285 -10500 0 -10500 0 0 -2270z"/>
</g>
</svg>
